HIERARCHY
ROOT joint_Root
{
	OFFSET 0.0 0.0 0.0
	CHANNELS 6 Xposition Yposition Zposition Zrotation Xrotation Yrotation 
	JOINT Hips
	{
		OFFSET -17.1583 93.1646 452.98
		CHANNELS 6 Xposition Yposition Zposition Zrotation Xrotation Yrotation 
		JOINT Spine
		{
			OFFSET 15.7357 0.0 0.0
			CHANNELS 6 Xposition Yposition Zposition Zrotation Xrotation Yrotation 
			JOINT Chest
			{
				OFFSET 8.98455 -0.406207 0.0
				CHANNELS 6 Xposition Yposition Zposition Zrotation Xrotation Yrotation 
				JOINT Neck
				{
					OFFSET 16.3773 0.0 0.0
					CHANNELS 6 Xposition Yposition Zposition Zrotation Xrotation Yrotation 
					JOINT Head
					{
						OFFSET 6.45672 0.0 0.0
						CHANNELS 6 Xposition Yposition Zposition Zrotation Xrotation Yrotation 
						End Site
						{
							OFFSET 0.0 0.0 0.0
						}
					}
				}
				JOINT Shoulder_L
				{
					OFFSET 12.9942 -0.242716 4.98039
					CHANNELS 6 Xposition Yposition Zposition Zrotation Xrotation Yrotation 
					JOINT UpperArm_L
					{
						OFFSET 5.34809 0.0 0.0
						CHANNELS 6 Xposition Yposition Zposition Zrotation Xrotation Yrotation 
						JOINT LowerArm_L
						{
							OFFSET 24.3286 1.87007e-05 0.0
							CHANNELS 6 Xposition Yposition Zposition Zrotation Xrotation Yrotation 
							JOINT Hand_L
							{
								OFFSET 22.2916 0.0 0.0
								CHANNELS 6 Xposition Yposition Zposition Zrotation Xrotation Yrotation 
								End Site
								{
									OFFSET 0.0 0.0 0.0
								}
							}
						}
					}
				}
				JOINT Shoulder_R
				{
					OFFSET 12.9945 -0.242716 -4.98039
					CHANNELS 6 Xposition Yposition Zposition Zrotation Xrotation Yrotation 
					JOINT UpperArm_R
					{
						OFFSET -5.34813 0.0 0.0
						CHANNELS 6 Xposition Yposition Zposition Zrotation Xrotation Yrotation 
						JOINT LowerArm_R
						{
							OFFSET -24.3289 0.000322201 0.0
							CHANNELS 6 Xposition Yposition Zposition Zrotation Xrotation Yrotation 
							JOINT Hand_R
							{
								OFFSET -22.2915 -0.000108084 0.0
								CHANNELS 6 Xposition Yposition Zposition Zrotation Xrotation Yrotation 
								End Site
								{
									OFFSET 0.0 0.0 0.0
								}
							}
						}
					}
				}
			}
		}
		JOINT UpperLeg_L
		{
			OFFSET -2.19248 -6.46944 0.0
			CHANNELS 6 Xposition Yposition Zposition Zrotation Xrotation Yrotation 
			JOINT LowerLeg_L
			{
				OFFSET 39.0811 0.0 -1.23785e-05
				CHANNELS 6 Xposition Yposition Zposition Zrotation Xrotation Yrotation 
				JOINT Foot_L
				{
					OFFSET 40.9854 0.0 -1.26872e-05
					CHANNELS 6 Xposition Yposition Zposition Zrotation Xrotation Yrotation 
					JOINT Toes_L
					{
						OFFSET 11.7543 0.0 0.0
						CHANNELS 6 Xposition Yposition Zposition Zrotation Xrotation Yrotation 
						End Site
						{
							OFFSET 0.0 0.0 0.0
						}
					}
				}
			}
		}
		JOINT UpperLeg_R
		{
			OFFSET -2.19251 6.46944 0.0
			CHANNELS 6 Xposition Yposition Zposition Zrotation Xrotation Yrotation 
			JOINT LowerLeg_R
			{
				OFFSET -39.0811 -0.00228153 -0.0401928
				CHANNELS 6 Xposition Yposition Zposition Zrotation Xrotation Yrotation 
				JOINT Foot_R
				{
					OFFSET -40.9854 0.0 0.0
					CHANNELS 6 Xposition Yposition Zposition Zrotation Xrotation Yrotation 
					JOINT Toes_R
					{
						OFFSET -11.7543 0.0 0.0
						CHANNELS 6 Xposition Yposition Zposition Zrotation Xrotation Yrotation 
						End Site
						{
							OFFSET 0.0 0.0 0.0
						}
					}
				}
			}
		}
	}
}
MOTION
Frames:	5
Frame Time:	0.0333333
0.000000 0.000000 0.000000 0.000000 0.000000 -0.000000 -177.744000 89.530800 168.436000 104.509000 83.899900 -17.880200 15.735700 0.000005 -0.000001 123.413000 86.830300 -123.507000 8.984550 -0.406207 -0.000000 -2.473460 3.498180 -0.112235 16.377300 -0.000001 -0.000001 2.832510 4.333220 -2.420720 6.456720 -0.000001 -0.000000 -8.599850 3.129120 -1.154280 12.994200 -0.242716 4.980390 -93.655500 9.159640 -68.132800 5.348090 -0.000007 -0.000001 -54.807800 -19.449800 8.833990 24.328600 0.000019 0.000005 2.645930 9.755110 -15.256800 22.291600 -0.000001 0.000005 41.166500 4.515060 16.350500 12.994500 -0.242716 -4.980390 88.281000 5.167320 -71.570500 -5.348130 -0.000001 -0.000004 -71.378100 17.313200 -12.379200 -24.328900 0.000322 -0.000009 -3.225390 -5.604900 -29.960400 -22.291500 -0.000108 -0.000004 40.976200 5.563310 -9.350380 -2.192480 -6.469440 -0.000000 175.769000 1.075690 -31.045000 39.081100 -0.000007 -0.000012 0.027363 -0.068358 21.815700 40.985400 -0.000006 -0.000013 2.448910 6.723740 -55.570100 11.754300 -0.000000 0.000003 0.002126 0.115745 -11.883100 -2.192510 6.469440 -0.000001 176.414000 7.999880 -171.416000 -39.081100 -0.002282 -0.040193 -0.008506 0.023421 26.767100 -40.985400 0.000008 0.000006 -6.277390 11.137300 -63.467100 -11.754300 -0.000006 -0.000006 -0.044880 -0.279006 -28.049100
0.000000 0.000000 0.000000 0.000000 0.000000 -0.000000 -173.101000 89.681100 168.284000 115.235000 83.984900 -28.430500 15.735700 0.000005 -0.000001 121.216000 87.000800 -121.743000 8.984550 -0.406207 -0.000000 -2.623070 3.155400 -0.981349 16.377300 -0.000001 -0.000001 1.929180 4.165060 -2.327150 6.456720 -0.000001 -0.000000 -8.649670 2.928370 -0.803204 12.994200 -0.242716 4.980390 -93.660200 9.400290 -68.611900 5.348090 -0.000007 -0.000001 -57.526500 -16.450600 7.225550 24.328600 0.000019 0.000005 2.540960 10.862500 -13.253300 22.291600 -0.000001 0.000005 40.882400 4.518630 16.291100 12.994500 -0.242716 -4.980390 88.307500 5.213880 -71.987700 -5.348130 -0.000001 -0.000004 -72.530400 16.262000 -9.910410 -24.328900 0.000322 -0.000009 -1.878830 -4.334970 -23.445600 -22.291500 -0.000108 -0.000004 40.101800 5.564860 -9.430420 -2.192480 -6.469440 -0.000000 174.792000 3.696090 -30.145500 39.081100 -0.000007 -0.000012 0.068385 -0.142841 25.582600 40.985400 -0.000006 -0.000013 3.314050 5.305220 -55.962700 11.754300 -0.000000 0.000003 0.001377 0.139831 -10.906200 -2.192510 6.469440 -0.000001 175.455000 6.525770 -172.642000 -39.081100 -0.002282 -0.040193 0.020643 -0.028155 31.635100 -40.985400 0.000008 0.000006 -6.764450 8.938930 -56.160100 -11.754300 -0.000006 -0.000006 -0.089645 -0.418103 -33.975600
0.000000 0.000000 0.000000 0.000000 0.000000 -0.000000 -168.367000 89.891100 168.205000 124.154000 84.196700 -36.121500 15.735700 0.000005 -0.000001 115.058000 86.818200 -115.845000 8.984550 -0.406207 -0.000000 -1.982750 2.761420 -1.527730 16.377300 -0.000001 -0.000001 1.465830 4.020110 -2.390150 6.456720 -0.000001 -0.000000 -9.034360 2.696830 -0.600356 12.994200 -0.242716 4.980390 -93.529900 9.235450 -68.975100 5.348090 -0.000007 -0.000001 -61.319200 -13.419400 4.670790 24.328600 0.000019 0.000005 2.502010 12.585900 -11.340200 22.291600 -0.000001 0.000005 41.136200 4.536930 15.985100 12.994500 -0.242716 -4.980390 88.312200 5.215290 -72.039600 -5.348130 -0.000001 -0.000004 -73.298400 15.627700 -7.840000 -24.328900 0.000322 -0.000009 -1.508220 -5.067630 -16.588400 -22.291500 -0.000108 -0.000004 39.535700 5.564750 -9.422890 -2.192480 -6.469440 -0.000000 173.572000 4.886860 -27.378800 39.081100 -0.000007 -0.000012 0.137862 -0.251359 28.743300 40.985400 -0.000006 -0.000013 4.258750 4.737350 -58.999900 11.754300 -0.000000 0.000003 0.000209 0.164033 -9.923910 -2.192510 6.469440 -0.000001 174.469000 6.014290 -174.315000 -39.081100 -0.002282 -0.040193 0.063572 -0.076711 38.164500 -40.985400 0.000008 0.000006 -6.975340 7.150100 -46.604900 -11.754300 -0.000006 -0.000006 -0.073908 -0.374545 -32.097900
0.000000 0.000000 0.000000 0.000000 0.000000 -0.000000 -163.829000 90.028900 168.087000 130.021000 84.108800 -39.811300 15.735700 0.000005 -0.000001 106.568000 86.335700 -107.543000 8.984550 -0.406207 -0.000000 -0.722520 2.161530 -1.936480 16.377300 -0.000001 -0.000001 1.551950 4.178840 -2.614380 6.456720 -0.000001 -0.000000 -9.406450 2.829090 -0.377881 12.994200 -0.242716 4.980390 -93.562100 9.284870 -68.902200 5.348090 -0.000007 -0.000001 -64.543200 -10.678800 2.492220 24.328600 0.000019 0.000005 2.833770 13.567700 -11.913000 22.291600 -0.000001 0.000005 40.654200 4.536030 16.000400 12.994500 -0.242716 -4.980390 88.188800 5.553300 -71.904200 -5.348130 -0.000001 -0.000004 -73.663800 14.572500 -5.772040 -24.328900 0.000322 -0.000009 -0.828427 -4.384470 -10.681900 -22.291500 -0.000108 -0.000004 39.549500 5.554330 -8.913800 -2.192480 -6.469440 -0.000000 172.088000 3.977260 -23.133600 39.081100 -0.000007 -0.000012 0.223347 -0.371328 31.026300 40.985400 -0.000006 -0.000013 5.494530 5.303310 -62.706800 11.754300 -0.000000 0.000003 -0.000952 0.182346 -9.180010 -2.192510 6.469440 -0.000001 173.386000 4.652100 -177.545000 -39.081100 -0.002282 -0.040193 0.142369 -0.129753 46.993400 -40.985400 0.000008 0.000006 -10.348900 4.428730 -35.598200 -11.754300 -0.000006 -0.000006 -0.001191 -0.018079 -17.308300
0.000000 0.000000 0.000000 0.000000 0.000000 -0.000000 -159.808000 90.101200 167.952000 132.218000 83.624100 -39.882300 15.735700 0.000005 -0.000001 100.211000 85.788700 -101.385000 8.984550 -0.406207 -0.000000 0.540715 1.566620 -2.352690 16.377300 -0.000001 -0.000001 1.813460 4.574210 -3.065030 6.456720 -0.000001 -0.000000 -9.438190 3.383100 0.009406 12.994200 -0.242716 4.980390 -93.672100 9.486000 -68.723200 5.348090 -0.000007 -0.000001 -66.807300 -7.774750 1.092310 24.328600 0.000019 0.000005 3.908910 14.165200 -15.597300 22.291600 -0.000001 0.000005 39.664600 4.601770 14.881900 12.994500 -0.242716 -4.980390 88.100800 5.782300 -71.782400 -5.348130 -0.000001 -0.000004 -74.057900 11.933300 -3.338940 -24.328900 0.000322 -0.000009 -0.360284 -3.023500 -6.767990 -22.291500 -0.000108 -0.000004 39.428300 5.541680 -8.319210 -2.192480 -6.469440 -0.000000 170.864000 2.330260 -18.667500 39.081100 -0.000007 -0.000012 0.296558 -0.471726 32.156600 40.985400 -0.000006 -0.000013 6.647330 6.002340 -65.900100 11.754300 -0.000000 0.000003 -0.001527 0.190260 -8.858300 -2.192510 6.469440 -0.000001 172.491000 2.969410 177.701000 -39.081100 -0.002282 -0.040193 0.237560 -0.160526 55.588100 -40.985400 0.000008 0.000006 -12.812100 -0.024669 -27.384500 -11.754300 -0.000006 -0.000006 -0.001102 0.184507 -9.088680
